<?xml version="1.0" encoding="UTF-8"?>
<svg id="Layer_2" data-name="Layer 2" xmlns="http://www.w3.org/2000/svg" xmlns:xlink="http://www.w3.org/1999/xlink" viewBox="0 0 773.62 479.42">
  <defs>
    <style>
      .cls-1 {
        letter-spacing: -.04em;
      }

      .cls-2 {
        clip-path: url(#clippath);
      }

      .cls-3 {
        letter-spacing: -.07em;
      }

      .cls-4 {
        fill: #499449;
        font-family: Helvetica-Bold, Helvetica;
        font-size: 21.15px;
        font-weight: 700;
      }

      .cls-5 {
        stroke-width: 0px;
      }

      .cls-6 {
        letter-spacing: 0em;
      }
    </style>
    <clipPath id="clippath">
      <rect class="cls-5" x="13.07" y="132.18" width="747.48" height="215.07" transform="translate(-61.63 162.36) rotate(-22)"/>
    </clipPath>
  </defs>
  <g id="Layer_1-2" data-name="Layer 1">
    <g>
      <rect x="13.07" y="132.18" width="747.48" height="215.07" transform="translate(-61.63 162.36) rotate(-22)"/>
      <g class="cls-2">
        <g id="RASPADITA">
          <g id="RASPADITA-2" data-name="RASPADITA">
            <text class="cls-4" transform="translate(-92.16 307.46) rotate(-22)"><tspan x="0" y="0">RAS</tspan><tspan class="cls-3" x="44.65" y="0">P</tspan><tspan x="57.2" y="0">ADI</tspan><tspan class="cls-3" x="93.62" y="0">T</tspan><tspan class="cls-1" x="104.98" y="0">A</tspan><tspan class="cls-6" x="119.48" y="0" xml:space="preserve">  </tspan></text>
          </g>
          <g id="RASPADITA-3" data-name="RASPADITA">
            <text class="cls-4" transform="translate(29.51 258.3) rotate(-22)"><tspan x="0" y="0">RAS</tspan><tspan class="cls-3" x="44.65" y="0">P</tspan><tspan x="57.2" y="0">ADI</tspan><tspan class="cls-3" x="93.62" y="0">T</tspan><tspan class="cls-1" x="104.98" y="0">A</tspan><tspan class="cls-6" x="119.48" y="0" xml:space="preserve">  </tspan></text>
          </g>
          <g id="RASPADITA-4" data-name="RASPADITA">
            <text class="cls-4" transform="translate(151.19 209.14) rotate(-22)"><tspan x="0" y="0">RAS</tspan><tspan class="cls-3" x="44.65" y="0">P</tspan><tspan x="57.2" y="0">ADI</tspan><tspan class="cls-3" x="93.62" y="0">T</tspan><tspan class="cls-1" x="104.98" y="0">A</tspan><tspan class="cls-6" x="119.48" y="0" xml:space="preserve">  </tspan></text>
          </g>
          <g id="RASPADITA-5" data-name="RASPADITA">
            <text class="cls-4" transform="translate(272.86 159.98) rotate(-22)"><tspan x="0" y="0">RAS</tspan><tspan class="cls-3" x="44.65" y="0">P</tspan><tspan x="57.2" y="0">ADI</tspan><tspan class="cls-3" x="93.62" y="0">T</tspan><tspan class="cls-1" x="104.98" y="0">A</tspan><tspan class="cls-6" x="119.48" y="0" xml:space="preserve">  </tspan></text>
          </g>
          <g id="RASPADITA-6" data-name="RASPADITA">
            <text class="cls-4" transform="translate(394.54 110.82) rotate(-22)"><tspan x="0" y="0">RAS</tspan><tspan class="cls-3" x="44.65" y="0">P</tspan><tspan x="57.2" y="0">ADI</tspan><tspan class="cls-3" x="93.62" y="0">T</tspan><tspan class="cls-1" x="104.98" y="0">A</tspan><tspan class="cls-6" x="119.48" y="0" xml:space="preserve">  </tspan></text>
          </g>
          <g id="RASPADITA-7" data-name="RASPADITA">
            <text class="cls-4" transform="translate(516.21 61.66) rotate(-22)"><tspan x="0" y="0">RAS</tspan><tspan class="cls-3" x="44.65" y="0">P</tspan><tspan x="57.2" y="0">ADI</tspan><tspan class="cls-3" x="93.62" y="0">T</tspan><tspan class="cls-1" x="104.98" y="0">A</tspan><tspan class="cls-6" x="119.48" y="0" xml:space="preserve">  </tspan></text>
          </g>
          <g id="RASPADITA-8" data-name="RASPADITA">
            <text class="cls-4" transform="translate(637.89 12.5) rotate(-22)"><tspan x="0" y="0">RAS</tspan><tspan class="cls-3" x="44.65" y="0">P</tspan><tspan x="57.2" y="0">ADI</tspan><tspan class="cls-3" x="93.62" y="0">T</tspan><tspan class="cls-1" x="104.98" y="0">A</tspan><tspan class="cls-6" x="119.48" y="0" xml:space="preserve">  </tspan></text>
          </g>
          <g id="RASPADITA-9" data-name="RASPADITA">
            <text class="cls-4" transform="translate(-81.54 333.75) rotate(-22)"><tspan x="0" y="0">RAS</tspan><tspan class="cls-3" x="44.65" y="0">P</tspan><tspan x="57.2" y="0">ADI</tspan><tspan class="cls-3" x="93.62" y="0">T</tspan><tspan class="cls-1" x="104.98" y="0">A</tspan><tspan class="cls-6" x="119.48" y="0" xml:space="preserve">  </tspan></text>
          </g>
          <g id="RASPADITA-10" data-name="RASPADITA">
            <text class="cls-4" transform="translate(40.14 284.59) rotate(-22)"><tspan x="0" y="0">RAS</tspan><tspan class="cls-3" x="44.65" y="0">P</tspan><tspan x="57.2" y="0">ADI</tspan><tspan class="cls-3" x="93.62" y="0">T</tspan><tspan class="cls-1" x="104.98" y="0">A</tspan><tspan class="cls-6" x="119.48" y="0" xml:space="preserve">  </tspan></text>
          </g>
          <g id="RASPADITA-11" data-name="RASPADITA">
            <text class="cls-4" transform="translate(161.81 235.43) rotate(-22)"><tspan x="0" y="0">RAS</tspan><tspan class="cls-3" x="44.65" y="0">P</tspan><tspan x="57.2" y="0">ADI</tspan><tspan class="cls-3" x="93.62" y="0">T</tspan><tspan class="cls-1" x="104.98" y="0">A</tspan><tspan class="cls-6" x="119.48" y="0" xml:space="preserve">  </tspan></text>
          </g>
          <g id="RASPADITA-12" data-name="RASPADITA">
            <text class="cls-4" transform="translate(283.49 186.27) rotate(-22)"><tspan x="0" y="0">RAS</tspan><tspan class="cls-3" x="44.65" y="0">P</tspan><tspan x="57.2" y="0">ADI</tspan><tspan class="cls-3" x="93.62" y="0">T</tspan><tspan class="cls-1" x="104.98" y="0">A</tspan><tspan class="cls-6" x="119.48" y="0" xml:space="preserve">  </tspan></text>
          </g>
          <g id="RASPADITA-13" data-name="RASPADITA">
            <text class="cls-4" transform="translate(405.16 137.11) rotate(-22)"><tspan x="0" y="0">RAS</tspan><tspan class="cls-3" x="44.65" y="0">P</tspan><tspan x="57.2" y="0">ADI</tspan><tspan class="cls-3" x="93.62" y="0">T</tspan><tspan class="cls-1" x="104.98" y="0">A</tspan><tspan class="cls-6" x="119.48" y="0" xml:space="preserve">  </tspan></text>
          </g>
          <g id="RASPADITA-14" data-name="RASPADITA">
            <text class="cls-4" transform="translate(526.83 87.95) rotate(-22)"><tspan x="0" y="0">RAS</tspan><tspan class="cls-3" x="44.65" y="0">P</tspan><tspan x="57.2" y="0">ADI</tspan><tspan class="cls-3" x="93.62" y="0">T</tspan><tspan class="cls-1" x="104.98" y="0">A</tspan><tspan class="cls-6" x="119.48" y="0" xml:space="preserve">  </tspan></text>
          </g>
          <g id="RASPADITA-15" data-name="RASPADITA">
            <text class="cls-4" transform="translate(648.51 38.79) rotate(-22)"><tspan x="0" y="0">RAS</tspan><tspan class="cls-3" x="44.65" y="0">P</tspan><tspan x="57.2" y="0">ADI</tspan><tspan class="cls-3" x="93.62" y="0">T</tspan><tspan class="cls-1" x="104.98" y="0">A</tspan><tspan class="cls-6" x="119.48" y="0" xml:space="preserve">  </tspan></text>
          </g>
          <g id="RASPADITA-16" data-name="RASPADITA">
            <text class="cls-4" transform="translate(-70.91 360.04) rotate(-22)"><tspan x="0" y="0">RAS</tspan><tspan class="cls-3" x="44.65" y="0">P</tspan><tspan x="57.2" y="0">ADI</tspan><tspan class="cls-3" x="93.62" y="0">T</tspan><tspan class="cls-1" x="104.98" y="0">A</tspan><tspan class="cls-6" x="119.48" y="0" xml:space="preserve">  </tspan></text>
          </g>
          <g id="RASPADITA-17" data-name="RASPADITA">
            <text class="cls-4" transform="translate(50.76 310.88) rotate(-22)"><tspan x="0" y="0">RAS</tspan><tspan class="cls-3" x="44.65" y="0">P</tspan><tspan x="57.2" y="0">ADI</tspan><tspan class="cls-3" x="93.62" y="0">T</tspan><tspan class="cls-1" x="104.98" y="0">A</tspan><tspan class="cls-6" x="119.48" y="0" xml:space="preserve">  </tspan></text>
          </g>
          <g id="RASPADITA-18" data-name="RASPADITA">
            <text class="cls-4" transform="translate(172.43 261.72) rotate(-22)"><tspan x="0" y="0">RAS</tspan><tspan class="cls-3" x="44.65" y="0">P</tspan><tspan x="57.2" y="0">ADI</tspan><tspan class="cls-3" x="93.62" y="0">T</tspan><tspan class="cls-1" x="104.98" y="0">A</tspan><tspan class="cls-6" x="119.48" y="0" xml:space="preserve">  </tspan></text>
          </g>
          <g id="RASPADITA-19" data-name="RASPADITA">
            <text class="cls-4" transform="translate(294.11 212.56) rotate(-22)"><tspan x="0" y="0">RAS</tspan><tspan class="cls-3" x="44.65" y="0">P</tspan><tspan x="57.2" y="0">ADI</tspan><tspan class="cls-3" x="93.62" y="0">T</tspan><tspan class="cls-1" x="104.98" y="0">A</tspan><tspan class="cls-6" x="119.48" y="0" xml:space="preserve">  </tspan></text>
          </g>
          <g id="RASPADITA-20" data-name="RASPADITA">
            <text class="cls-4" transform="translate(415.78 163.4) rotate(-22)"><tspan x="0" y="0">RAS</tspan><tspan class="cls-3" x="44.65" y="0">P</tspan><tspan x="57.2" y="0">ADI</tspan><tspan class="cls-3" x="93.62" y="0">T</tspan><tspan class="cls-1" x="104.98" y="0">A</tspan><tspan class="cls-6" x="119.48" y="0" xml:space="preserve">  </tspan></text>
          </g>
          <g id="RASPADITA-21" data-name="RASPADITA">
            <text class="cls-4" transform="translate(537.46 114.24) rotate(-22)"><tspan x="0" y="0">RAS</tspan><tspan class="cls-3" x="44.65" y="0">P</tspan><tspan x="57.2" y="0">ADI</tspan><tspan class="cls-3" x="93.62" y="0">T</tspan><tspan class="cls-1" x="104.98" y="0">A</tspan><tspan class="cls-6" x="119.48" y="0" xml:space="preserve">  </tspan></text>
          </g>
          <g id="RASPADITA-22" data-name="RASPADITA">
            <text class="cls-4" transform="translate(659.13 65.08) rotate(-22)"><tspan x="0" y="0">RAS</tspan><tspan class="cls-3" x="44.65" y="0">P</tspan><tspan x="57.2" y="0">ADI</tspan><tspan class="cls-3" x="93.62" y="0">T</tspan><tspan class="cls-1" x="104.98" y="0">A</tspan><tspan class="cls-6" x="119.48" y="0" xml:space="preserve">  </tspan></text>
          </g>
          <g id="RASPADITA-23" data-name="RASPADITA">
            <text class="cls-4" transform="translate(-60.29 386.33) rotate(-22)"><tspan x="0" y="0">RAS</tspan><tspan class="cls-3" x="44.65" y="0">P</tspan><tspan x="57.2" y="0">ADI</tspan><tspan class="cls-3" x="93.62" y="0">T</tspan><tspan class="cls-1" x="104.98" y="0">A</tspan><tspan class="cls-6" x="119.48" y="0" xml:space="preserve">  </tspan></text>
          </g>
          <g id="RASPADITA-24" data-name="RASPADITA">
            <text class="cls-4" transform="translate(61.38 337.17) rotate(-22)"><tspan x="0" y="0">RAS</tspan><tspan class="cls-3" x="44.65" y="0">P</tspan><tspan x="57.2" y="0">ADI</tspan><tspan class="cls-3" x="93.62" y="0">T</tspan><tspan class="cls-1" x="104.98" y="0">A</tspan><tspan class="cls-6" x="119.48" y="0" xml:space="preserve">  </tspan></text>
          </g>
          <g id="RASPADITA-25" data-name="RASPADITA">
            <text class="cls-4" transform="translate(183.06 288.01) rotate(-22)"><tspan x="0" y="0">RAS</tspan><tspan class="cls-3" x="44.65" y="0">P</tspan><tspan x="57.2" y="0">ADI</tspan><tspan class="cls-3" x="93.62" y="0">T</tspan><tspan class="cls-1" x="104.98" y="0">A</tspan><tspan class="cls-6" x="119.48" y="0" xml:space="preserve">  </tspan></text>
          </g>
          <g id="RASPADITA-26" data-name="RASPADITA">
            <text class="cls-4" transform="translate(304.73 238.86) rotate(-22)"><tspan x="0" y="0">RAS</tspan><tspan class="cls-3" x="44.65" y="0">P</tspan><tspan x="57.2" y="0">ADI</tspan><tspan class="cls-3" x="93.62" y="0">T</tspan><tspan class="cls-1" x="104.98" y="0">A</tspan><tspan class="cls-6" x="119.48" y="0" xml:space="preserve">  </tspan></text>
          </g>
          <g id="RASPADITA-27" data-name="RASPADITA">
            <text class="cls-4" transform="translate(426.41 189.7) rotate(-22)"><tspan x="0" y="0">RAS</tspan><tspan class="cls-3" x="44.65" y="0">P</tspan><tspan x="57.2" y="0">ADI</tspan><tspan class="cls-3" x="93.62" y="0">T</tspan><tspan class="cls-1" x="104.98" y="0">A</tspan><tspan class="cls-6" x="119.48" y="0" xml:space="preserve">  </tspan></text>
          </g>
          <g id="RASPADITA-28" data-name="RASPADITA">
            <text class="cls-4" transform="translate(548.08 140.54) rotate(-22)"><tspan x="0" y="0">RAS</tspan><tspan class="cls-3" x="44.65" y="0">P</tspan><tspan x="57.2" y="0">ADI</tspan><tspan class="cls-3" x="93.62" y="0">T</tspan><tspan class="cls-1" x="104.98" y="0">A</tspan><tspan class="cls-6" x="119.48" y="0" xml:space="preserve">  </tspan></text>
          </g>
          <g id="RASPADITA-29" data-name="RASPADITA">
            <text class="cls-4" transform="translate(669.75 91.38) rotate(-22)"><tspan x="0" y="0">RAS</tspan><tspan class="cls-3" x="44.65" y="0">P</tspan><tspan x="57.2" y="0">ADI</tspan><tspan class="cls-3" x="93.62" y="0">T</tspan><tspan class="cls-1" x="104.98" y="0">A</tspan><tspan class="cls-6" x="119.48" y="0" xml:space="preserve">  </tspan></text>
          </g>
          <g id="RASPADITA-30" data-name="RASPADITA">
            <text class="cls-4" transform="translate(-49.67 412.63) rotate(-22)"><tspan x="0" y="0">RAS</tspan><tspan class="cls-3" x="44.65" y="0">P</tspan><tspan x="57.2" y="0">ADI</tspan><tspan class="cls-3" x="93.62" y="0">T</tspan><tspan class="cls-1" x="104.98" y="0">A</tspan><tspan class="cls-6" x="119.48" y="0" xml:space="preserve">  </tspan></text>
          </g>
          <g id="RASPADITA-31" data-name="RASPADITA">
            <text class="cls-4" transform="translate(72.01 363.47) rotate(-22)"><tspan x="0" y="0">RAS</tspan><tspan class="cls-3" x="44.65" y="0">P</tspan><tspan x="57.2" y="0">ADI</tspan><tspan class="cls-3" x="93.62" y="0">T</tspan><tspan class="cls-1" x="104.98" y="0">A</tspan><tspan class="cls-6" x="119.48" y="0" xml:space="preserve">  </tspan></text>
          </g>
          <g id="RASPADITA-32" data-name="RASPADITA">
            <text class="cls-4" transform="translate(193.68 314.31) rotate(-22)"><tspan x="0" y="0">RAS</tspan><tspan class="cls-3" x="44.65" y="0">P</tspan><tspan x="57.2" y="0">ADI</tspan><tspan class="cls-3" x="93.62" y="0">T</tspan><tspan class="cls-1" x="104.98" y="0">A</tspan><tspan class="cls-6" x="119.48" y="0" xml:space="preserve">  </tspan></text>
          </g>
          <g id="RASPADITA-33" data-name="RASPADITA">
            <text class="cls-4" transform="translate(315.35 265.15) rotate(-22)"><tspan x="0" y="0">RAS</tspan><tspan class="cls-3" x="44.65" y="0">P</tspan><tspan x="57.2" y="0">ADI</tspan><tspan class="cls-3" x="93.62" y="0">T</tspan><tspan class="cls-1" x="104.98" y="0">A</tspan><tspan class="cls-6" x="119.48" y="0" xml:space="preserve">  </tspan></text>
          </g>
          <g id="RASPADITA-34" data-name="RASPADITA">
            <text class="cls-4" transform="translate(437.03 215.99) rotate(-22)"><tspan x="0" y="0">RAS</tspan><tspan class="cls-3" x="44.65" y="0">P</tspan><tspan x="57.2" y="0">ADI</tspan><tspan class="cls-3" x="93.62" y="0">T</tspan><tspan class="cls-1" x="104.98" y="0">A</tspan><tspan class="cls-6" x="119.48" y="0" xml:space="preserve">  </tspan></text>
          </g>
          <g id="RASPADITA-35" data-name="RASPADITA">
            <text class="cls-4" transform="translate(558.7 166.83) rotate(-22)"><tspan x="0" y="0">RAS</tspan><tspan class="cls-3" x="44.65" y="0">P</tspan><tspan x="57.2" y="0">ADI</tspan><tspan class="cls-3" x="93.62" y="0">T</tspan><tspan class="cls-1" x="104.98" y="0">A</tspan><tspan class="cls-6" x="119.48" y="0" xml:space="preserve">  </tspan></text>
          </g>
          <g id="RASPADITA-36" data-name="RASPADITA">
            <text class="cls-4" transform="translate(680.38 117.67) rotate(-22)"><tspan x="0" y="0">RAS</tspan><tspan class="cls-3" x="44.65" y="0">P</tspan><tspan x="57.2" y="0">ADI</tspan><tspan class="cls-3" x="93.62" y="0">T</tspan><tspan class="cls-1" x="104.98" y="0">A</tspan><tspan class="cls-6" x="119.48" y="0" xml:space="preserve">  </tspan></text>
          </g>
          <g id="RASPADITA-37" data-name="RASPADITA">
            <text class="cls-4" transform="translate(-39.05 438.92) rotate(-22)"><tspan x="0" y="0">RAS</tspan><tspan class="cls-3" x="44.65" y="0">P</tspan><tspan x="57.2" y="0">ADI</tspan><tspan class="cls-3" x="93.62" y="0">T</tspan><tspan class="cls-1" x="104.98" y="0">A</tspan><tspan class="cls-6" x="119.48" y="0" xml:space="preserve">  </tspan></text>
          </g>
          <g id="RASPADITA-38" data-name="RASPADITA">
            <text class="cls-4" transform="translate(82.63 389.76) rotate(-22)"><tspan x="0" y="0">RAS</tspan><tspan class="cls-3" x="44.65" y="0">P</tspan><tspan x="57.2" y="0">ADI</tspan><tspan class="cls-3" x="93.62" y="0">T</tspan><tspan class="cls-1" x="104.98" y="0">A</tspan><tspan class="cls-6" x="119.48" y="0" xml:space="preserve">  </tspan></text>
          </g>
          <g id="RASPADITA-39" data-name="RASPADITA">
            <text class="cls-4" transform="translate(204.3 340.6) rotate(-22)"><tspan x="0" y="0">RAS</tspan><tspan class="cls-3" x="44.65" y="0">P</tspan><tspan x="57.2" y="0">ADI</tspan><tspan class="cls-3" x="93.62" y="0">T</tspan><tspan class="cls-1" x="104.98" y="0">A</tspan><tspan class="cls-6" x="119.48" y="0" xml:space="preserve">  </tspan></text>
          </g>
          <g id="RASPADITA-40" data-name="RASPADITA">
            <text class="cls-4" transform="translate(325.98 291.44) rotate(-22)"><tspan x="0" y="0">RAS</tspan><tspan class="cls-3" x="44.65" y="0">P</tspan><tspan x="57.2" y="0">ADI</tspan><tspan class="cls-3" x="93.62" y="0">T</tspan><tspan class="cls-1" x="104.98" y="0">A</tspan><tspan class="cls-6" x="119.48" y="0" xml:space="preserve">  </tspan></text>
          </g>
          <g id="RASPADITA-41" data-name="RASPADITA">
            <text class="cls-4" transform="translate(447.65 242.28) rotate(-22)"><tspan x="0" y="0">RAS</tspan><tspan class="cls-3" x="44.65" y="0">P</tspan><tspan x="57.2" y="0">ADI</tspan><tspan class="cls-3" x="93.62" y="0">T</tspan><tspan class="cls-1" x="104.98" y="0">A</tspan><tspan class="cls-6" x="119.48" y="0" xml:space="preserve">  </tspan></text>
          </g>
          <g id="RASPADITA-42" data-name="RASPADITA">
            <text class="cls-4" transform="translate(569.33 193.12) rotate(-22)"><tspan x="0" y="0">RAS</tspan><tspan class="cls-3" x="44.65" y="0">P</tspan><tspan x="57.2" y="0">ADI</tspan><tspan class="cls-3" x="93.62" y="0">T</tspan><tspan class="cls-1" x="104.98" y="0">A</tspan><tspan class="cls-6" x="119.48" y="0" xml:space="preserve">  </tspan></text>
          </g>
          <g id="RASPADITA-43" data-name="RASPADITA">
            <text class="cls-4" transform="translate(691 143.96) rotate(-22)"><tspan x="0" y="0">RAS</tspan><tspan class="cls-3" x="44.65" y="0">P</tspan><tspan x="57.2" y="0">ADI</tspan><tspan class="cls-3" x="93.62" y="0">T</tspan><tspan class="cls-1" x="104.98" y="0">A</tspan><tspan class="cls-6" x="119.48" y="0" xml:space="preserve">  </tspan></text>
          </g>
          <g id="RASPADITA-44" data-name="RASPADITA">
            <text class="cls-4" transform="translate(-28.42 465.21) rotate(-22)"><tspan x="0" y="0">RAS</tspan><tspan class="cls-3" x="44.65" y="0">P</tspan><tspan x="57.2" y="0">ADI</tspan><tspan class="cls-3" x="93.62" y="0">T</tspan><tspan class="cls-1" x="104.98" y="0">A</tspan><tspan class="cls-6" x="119.48" y="0" xml:space="preserve">  </tspan></text>
          </g>
          <g id="RASPADITA-45" data-name="RASPADITA">
            <text class="cls-4" transform="translate(93.25 416.05) rotate(-22)"><tspan x="0" y="0">RAS</tspan><tspan class="cls-3" x="44.65" y="0">P</tspan><tspan x="57.2" y="0">ADI</tspan><tspan class="cls-3" x="93.62" y="0">T</tspan><tspan class="cls-1" x="104.98" y="0">A</tspan><tspan class="cls-6" x="119.48" y="0" xml:space="preserve">  </tspan></text>
          </g>
          <g id="RASPADITA-46" data-name="RASPADITA">
            <text class="cls-4" transform="translate(214.93 366.89) rotate(-22)"><tspan x="0" y="0">RAS</tspan><tspan class="cls-3" x="44.65" y="0">P</tspan><tspan x="57.2" y="0">ADI</tspan><tspan class="cls-3" x="93.62" y="0">T</tspan><tspan class="cls-1" x="104.98" y="0">A</tspan><tspan class="cls-6" x="119.48" y="0" xml:space="preserve">  </tspan></text>
          </g>
          <g id="RASPADITA-47" data-name="RASPADITA">
            <text class="cls-4" transform="translate(336.6 317.73) rotate(-22)"><tspan x="0" y="0">RAS</tspan><tspan class="cls-3" x="44.65" y="0">P</tspan><tspan x="57.2" y="0">ADI</tspan><tspan class="cls-3" x="93.62" y="0">T</tspan><tspan class="cls-1" x="104.98" y="0">A</tspan><tspan class="cls-6" x="119.48" y="0" xml:space="preserve">  </tspan></text>
          </g>
          <g id="RASPADITA-48" data-name="RASPADITA">
            <text class="cls-4" transform="translate(458.27 268.57) rotate(-22)"><tspan x="0" y="0">RAS</tspan><tspan class="cls-3" x="44.65" y="0">P</tspan><tspan x="57.2" y="0">ADI</tspan><tspan class="cls-3" x="93.62" y="0">T</tspan><tspan class="cls-1" x="104.98" y="0">A</tspan><tspan class="cls-6" x="119.48" y="0" xml:space="preserve">  </tspan></text>
          </g>
          <g id="RASPADITA-49" data-name="RASPADITA">
            <text class="cls-4" transform="translate(579.95 219.41) rotate(-22)"><tspan x="0" y="0">RAS</tspan><tspan class="cls-3" x="44.65" y="0">P</tspan><tspan x="57.2" y="0">ADI</tspan><tspan class="cls-3" x="93.62" y="0">T</tspan><tspan class="cls-1" x="104.98" y="0">A</tspan><tspan class="cls-6" x="119.48" y="0" xml:space="preserve">  </tspan></text>
          </g>
          <g id="RASPADITA-50" data-name="RASPADITA">
            <text class="cls-4" transform="translate(701.62 170.25) rotate(-22)"><tspan x="0" y="0">RAS</tspan><tspan class="cls-3" x="44.65" y="0">P</tspan><tspan x="57.2" y="0">ADI</tspan><tspan class="cls-3" x="93.62" y="0">T</tspan><tspan class="cls-1" x="104.98" y="0">A</tspan><tspan class="cls-6" x="119.48" y="0" xml:space="preserve">  </tspan></text>
          </g>
          <g id="RASPADITA-51" data-name="RASPADITA">
            <text class="cls-4" transform="translate(-17.8 491.5) rotate(-22)"><tspan x="0" y="0">RAS</tspan><tspan class="cls-3" x="44.65" y="0">P</tspan><tspan x="57.2" y="0">ADI</tspan><tspan class="cls-3" x="93.62" y="0">T</tspan><tspan class="cls-1" x="104.98" y="0">A</tspan><tspan class="cls-6" x="119.48" y="0" xml:space="preserve">  </tspan></text>
          </g>
          <g id="RASPADITA-52" data-name="RASPADITA">
            <text class="cls-4" transform="translate(103.87 442.34) rotate(-22)"><tspan x="0" y="0">RAS</tspan><tspan class="cls-3" x="44.65" y="0">P</tspan><tspan x="57.2" y="0">ADI</tspan><tspan class="cls-3" x="93.62" y="0">T</tspan><tspan class="cls-1" x="104.98" y="0">A</tspan><tspan class="cls-6" x="119.48" y="0" xml:space="preserve">  </tspan></text>
          </g>
          <g id="RASPADITA-53" data-name="RASPADITA">
            <text class="cls-4" transform="translate(225.55 393.18) rotate(-22)"><tspan x="0" y="0">RAS</tspan><tspan class="cls-3" x="44.65" y="0">P</tspan><tspan x="57.2" y="0">ADI</tspan><tspan class="cls-3" x="93.62" y="0">T</tspan><tspan class="cls-1" x="104.98" y="0">A</tspan><tspan class="cls-6" x="119.48" y="0" xml:space="preserve">  </tspan></text>
          </g>
          <g id="RASPADITA-54" data-name="RASPADITA">
            <text class="cls-4" transform="translate(347.22 344.03) rotate(-22)"><tspan x="0" y="0">RAS</tspan><tspan class="cls-3" x="44.65" y="0">P</tspan><tspan x="57.2" y="0">ADI</tspan><tspan class="cls-3" x="93.62" y="0">T</tspan><tspan class="cls-1" x="104.98" y="0">A</tspan><tspan class="cls-6" x="119.48" y="0" xml:space="preserve">  </tspan></text>
          </g>
          <g id="RASPADITA-55" data-name="RASPADITA">
            <text class="cls-4" transform="translate(468.9 294.87) rotate(-22)"><tspan x="0" y="0">RAS</tspan><tspan class="cls-3" x="44.65" y="0">P</tspan><tspan x="57.2" y="0">ADI</tspan><tspan class="cls-3" x="93.62" y="0">T</tspan><tspan class="cls-1" x="104.98" y="0">A</tspan><tspan class="cls-6" x="119.48" y="0" xml:space="preserve">  </tspan></text>
          </g>
          <g id="RASPADITA-56" data-name="RASPADITA">
            <text class="cls-4" transform="translate(590.57 245.71) rotate(-22)"><tspan x="0" y="0">RAS</tspan><tspan class="cls-3" x="44.65" y="0">P</tspan><tspan x="57.2" y="0">ADI</tspan><tspan class="cls-3" x="93.62" y="0">T</tspan><tspan class="cls-1" x="104.98" y="0">A</tspan><tspan class="cls-6" x="119.48" y="0" xml:space="preserve">  </tspan></text>
          </g>
          <g id="RASPADITA-57" data-name="RASPADITA">
            <text class="cls-4" transform="translate(712.25 196.55) rotate(-22)"><tspan x="0" y="0">RAS</tspan><tspan class="cls-3" x="44.65" y="0">P</tspan><tspan x="57.2" y="0">ADI</tspan><tspan class="cls-3" x="93.62" y="0">T</tspan><tspan class="cls-1" x="104.98" y="0">A</tspan><tspan class="cls-6" x="119.48" y="0" xml:space="preserve">  </tspan></text>
          </g>
          <g id="RASPADITA-58" data-name="RASPADITA">
            <text class="cls-4" transform="translate(-7.18 517.8) rotate(-22)"><tspan x="0" y="0">RAS</tspan><tspan class="cls-3" x="44.65" y="0">P</tspan><tspan x="57.2" y="0">ADI</tspan><tspan class="cls-3" x="93.62" y="0">T</tspan><tspan class="cls-1" x="104.98" y="0">A</tspan><tspan class="cls-6" x="119.48" y="0" xml:space="preserve">  </tspan></text>
          </g>
          <g id="RASPADITA-59" data-name="RASPADITA">
            <text class="cls-4" transform="translate(114.5 468.64) rotate(-22)"><tspan x="0" y="0">RAS</tspan><tspan class="cls-3" x="44.65" y="0">P</tspan><tspan x="57.2" y="0">ADI</tspan><tspan class="cls-3" x="93.62" y="0">T</tspan><tspan class="cls-1" x="104.98" y="0">A</tspan><tspan class="cls-6" x="119.48" y="0" xml:space="preserve">  </tspan></text>
          </g>
          <g id="RASPADITA-60" data-name="RASPADITA">
            <text class="cls-4" transform="translate(236.17 419.48) rotate(-22)"><tspan x="0" y="0">RAS</tspan><tspan class="cls-3" x="44.65" y="0">P</tspan><tspan x="57.2" y="0">ADI</tspan><tspan class="cls-3" x="93.62" y="0">T</tspan><tspan class="cls-1" x="104.98" y="0">A</tspan><tspan class="cls-6" x="119.48" y="0" xml:space="preserve">  </tspan></text>
          </g>
          <g id="RASPADITA-61" data-name="RASPADITA">
            <text class="cls-4" transform="translate(357.85 370.32) rotate(-22)"><tspan x="0" y="0">RAS</tspan><tspan class="cls-3" x="44.65" y="0">P</tspan><tspan x="57.2" y="0">ADI</tspan><tspan class="cls-3" x="93.62" y="0">T</tspan><tspan class="cls-1" x="104.98" y="0">A</tspan><tspan class="cls-6" x="119.48" y="0" xml:space="preserve">  </tspan></text>
          </g>
          <g id="RASPADITA-62" data-name="RASPADITA">
            <text class="cls-4" transform="translate(479.52 321.16) rotate(-22)"><tspan x="0" y="0">RAS</tspan><tspan class="cls-3" x="44.65" y="0">P</tspan><tspan x="57.2" y="0">ADI</tspan><tspan class="cls-3" x="93.62" y="0">T</tspan><tspan class="cls-1" x="104.98" y="0">A</tspan><tspan class="cls-6" x="119.48" y="0" xml:space="preserve">  </tspan></text>
          </g>
          <g id="RASPADITA-63" data-name="RASPADITA">
            <text class="cls-4" transform="translate(601.19 272) rotate(-22)"><tspan x="0" y="0">RAS</tspan><tspan class="cls-3" x="44.65" y="0">P</tspan><tspan x="57.2" y="0">ADI</tspan><tspan class="cls-3" x="93.62" y="0">T</tspan><tspan class="cls-1" x="104.98" y="0">A</tspan><tspan class="cls-6" x="119.48" y="0" xml:space="preserve">  </tspan></text>
          </g>
          <g id="RASPADITA-64" data-name="RASPADITA">
            <text class="cls-4" transform="translate(722.87 222.84) rotate(-22)"><tspan x="0" y="0">RAS</tspan><tspan class="cls-3" x="44.65" y="0">P</tspan><tspan x="57.2" y="0">ADI</tspan><tspan class="cls-3" x="93.62" y="0">T</tspan><tspan class="cls-1" x="104.98" y="0">A</tspan><tspan class="cls-6" x="119.48" y="0" xml:space="preserve">  </tspan></text>
          </g>
          <g id="RASPADITA-65" data-name="RASPADITA">
            <text class="cls-4" transform="translate(125.12 494.93) rotate(-22)"><tspan x="0" y="0">RAS</tspan><tspan class="cls-3" x="44.65" y="0">P</tspan><tspan x="57.2" y="0">ADI</tspan><tspan class="cls-3" x="93.62" y="0">T</tspan><tspan class="cls-1" x="104.98" y="0">A</tspan><tspan class="cls-6" x="119.48" y="0" xml:space="preserve">  </tspan></text>
          </g>
          <g id="RASPADITA-66" data-name="RASPADITA">
            <text class="cls-4" transform="translate(246.79 445.77) rotate(-22)"><tspan x="0" y="0">RAS</tspan><tspan class="cls-3" x="44.65" y="0">P</tspan><tspan x="57.2" y="0">ADI</tspan><tspan class="cls-3" x="93.62" y="0">T</tspan><tspan class="cls-1" x="104.98" y="0">A</tspan><tspan class="cls-6" x="119.48" y="0" xml:space="preserve">  </tspan></text>
          </g>
          <g id="RASPADITA-67" data-name="RASPADITA">
            <text class="cls-4" transform="translate(368.47 396.61) rotate(-22)"><tspan x="0" y="0">RAS</tspan><tspan class="cls-3" x="44.65" y="0">P</tspan><tspan x="57.2" y="0">ADI</tspan><tspan class="cls-3" x="93.62" y="0">T</tspan><tspan class="cls-1" x="104.98" y="0">A</tspan><tspan class="cls-6" x="119.48" y="0" xml:space="preserve">  </tspan></text>
          </g>
          <g id="RASPADITA-68" data-name="RASPADITA">
            <text class="cls-4" transform="translate(490.14 347.45) rotate(-22)"><tspan x="0" y="0">RAS</tspan><tspan class="cls-3" x="44.65" y="0">P</tspan><tspan x="57.2" y="0">ADI</tspan><tspan class="cls-3" x="93.62" y="0">T</tspan><tspan class="cls-1" x="104.98" y="0">A</tspan><tspan class="cls-6" x="119.48" y="0" xml:space="preserve">  </tspan></text>
          </g>
          <g id="RASPADITA-69" data-name="RASPADITA">
            <text class="cls-4" transform="translate(611.82 298.29) rotate(-22)"><tspan x="0" y="0">RAS</tspan><tspan class="cls-3" x="44.65" y="0">P</tspan><tspan x="57.2" y="0">ADI</tspan><tspan class="cls-3" x="93.62" y="0">T</tspan><tspan class="cls-1" x="104.98" y="0">A</tspan><tspan class="cls-6" x="119.48" y="0" xml:space="preserve">  </tspan></text>
          </g>
          <g id="RASPADITA-70" data-name="RASPADITA">
            <text class="cls-4" transform="translate(733.49 249.13) rotate(-22)"><tspan x="0" y="0">RAS</tspan><tspan class="cls-3" x="44.65" y="0">P</tspan><tspan x="57.2" y="0">ADI</tspan><tspan class="cls-3" x="93.62" y="0">T</tspan><tspan class="cls-1" x="104.98" y="0">A</tspan><tspan class="cls-6" x="119.48" y="0" xml:space="preserve">  </tspan></text>
          </g>
        </g>
      </g>
    </g>
  </g>
</svg>